{"title":"Homicycle.2014.AR-SUB.HDRip.XviD.AC3-N33B","uid":12242624,"size":904686040,"categoryP":"video","categoryS":"movies","magnet":"?xt=urn:btih:e3d3719369c60820efac1754e1cc28f5d33fa5c3&amp;dn=Homicycle.2014.AR-SUB.HDRip.XviD.AC3-N33B&amp;tr=udp%3A%2F%2Ftracker.openbittorrent.com%3A80&amp;tr=udp%3A%2F%2Fopen.demonii.com%3A1337&amp;tr=udp%3A%2F%2Ftracker.coppersurfer.tk%3A6969&amp;tr=udp%3A%2F%2Fexodus.desync.com%3A6969","seeders":0,"leechers":0,"uploader":"TvTeam","files":4,"time":1439820508,"description":"------------------------------------------------------------------------\n\n &lt;a href=&quot; https://www.torrenting.com&quot; rel=&quot;nofollow&quot; target=&quot;_NEW&quot;&gt; https://www.torrenting.com&lt;/a&gt;\n\nSign up is OPEN - for time being. Come and have fun\n\n.......................................................................................................................[img]http://s24.postimg.org/ntsgwi6cl/0_214_317_AL.jpg[/img]\n\nHomicycle.2014.AR-SUB.HDRip.XviD.AC3-N33B &lt;a href=&quot;\nhttp://www.imdb.com/title/tt2846372/&quot; rel=&quot;nofollow&quot; target=&quot;_NEW&quot;&gt;\nhttp://www.imdb.com/title/tt2846372/&lt;/a&gt;\n\nSource is 720p.WEBDL-AnSa\n\nGeneral\nComplete name                            : Homicycle.2014.AR-SUB.HDRip.XviD.AC3-N33B.avi\nFormat                                   : AVI\nFormat/Info                              : Audio Video Interleave\nFile size                                : 843 MiB\nDuration                                 : 1h 10mn\nOverall bit rate                         : 1 677 Kbps\n\nVideo\nID                                       : 0\nFormat                                   : MPEG-4 Visual\nFormat profile                           : Advanced Simple@L5\nFormat settings, BVOP                    : 2\nFormat settings, QPel                    : No\nFormat settings, GMC                     : No warppoints\nFormat settings, Matrix                  : Default (H.263)\nMuxing mode                              : Packed bitstream\nCodec ID                                 : XVID\nCodec ID/Hint                            : XviD\nDuration                                 : 1h 10mn\nBit rate                                 : 1 349 Kbps\nWidth                                    : 720 pixels\nHeight                                   : 400 pixels\nDisplay aspect ratio                     : 16:9\nFrame rate                               : 25.000 fps\nColor space                              : YUV\nChroma subsampling                       : 4:2:0\nBit depth                                : 8 bits\nScan type                                : Progressive\nCompression mode                         : Lossy\nBits/(Pixel*Frame)                       : 0.187\nStream size                              : 678 MiB (80%)\nWriting library                          : XviD 73\n\nAudio\nID                                       : 1\nFormat                                   : AC-3\nFormat/Info                              : Audio Coding 3\nMode extension                           : CM (complete main)\nFormat settings, Endianness              : Big\nCodec ID                                 : 2000\nDuration                                 : 1h 10mn\nBit rate mode                            : Constant\nBit rate                                 : 320 Kbps\nChannel(s)                               : 2 channels\nChannel positions                        : Front: L R\nSampling rate                            : 44.1 KHz\nCompression mode                         : Lossy\nStream size                              : 161 MiB (19%)\nAlignment                                : Aligned on interleaves\nInterleave, duration                     : 70 ms (1.74 video frames)\nInterleave, preload duration             : 208 ms\n\n[img]http://s27.postimg.org/5tcnsdlvn/vlcsnap_2015_08_17_13h27m13s848.jpg[/img]\n[img]http://s27.postimg.org/i99dm4f7n/vlcsnap_2015_08_17_13h27m44s677.jpg[/img]\n[img]http://s27.postimg.org/q4jx0xoub/vlcsnap_2015_08_17_13h27m56s513.jpg[/img]\n[img]http://s27.postimg.org/nbqpgwohv/vlcsnap_2015_08_17_13h28m18s552.jpg[/img]","torrent":{"xt":"urn:btih:e3d3719369c60820efac1754e1cc28f5d33fa5c3","amp;dn":"Homicycle.2014.AR-SUB.HDRip.XviD.AC3-N33B","amp;tr":["udp%3A%2F%2Ftracker.openbittorrent.com%3A80","udp%3A%2F%2Fopen.demonii.com%3A1337","udp%3A%2F%2Ftracker.coppersurfer.tk%3A6969","udp%3A%2F%2Fexodus.desync.com%3A6969"],"infoHash":"e3d3719369c60820efac1754e1cc28f5d33fa5c3","infoHashBuffer":{"type":"Buffer","data":[227,211,113,147,105,198,8,32,239,172,23,84,225,204,40,245,211,63,165,195]},"announce":[],"urlList":[]}}